<svg id="Capa_1" data-name="Capa 1" xmlns="http://www.w3.org/2000/svg" viewBox="0 0 100.02 100.02"><defs><style>.cls-1{fill:#bbe5ef;}.cls-2{fill:#192a35;}.cls-3{fill:#5dcae8;}.cls-4{fill:#4791ba;}.cls-5{fill:#347591;}</style></defs><title>agenda</title><circle class="cls-1" cx="50.01" cy="50.01" r="50.01"/><rect class="cls-2" x="26.27" y="22.24" width="44.31" height="58.74"/><rect class="cls-3" x="31.58" y="33.85" width="6.65" height="6.65"/><rect class="cls-3" x="41.19" y="33.85" width="24.45" height="1.58"/><rect class="cls-3" x="41.19" y="38.92" width="24.45" height="1.58"/><rect class="cls-3" x="31.58" y="44.94" width="6.65" height="6.65"/><rect class="cls-3" x="41.19" y="44.94" width="24.45" height="1.58"/><rect class="cls-3" x="41.19" y="50.01" width="24.45" height="1.58"/><rect class="cls-3" x="31.58" y="56.03" width="6.65" height="6.65"/><rect class="cls-3" x="41.19" y="56.03" width="24.45" height="1.58"/><rect class="cls-3" x="41.19" y="61.1" width="24.45" height="1.58"/><rect class="cls-3" x="31.58" y="67.12" width="6.65" height="6.65"/><rect class="cls-3" x="41.19" y="67.12" width="24.45" height="1.58"/><rect class="cls-3" x="41.19" y="72.19" width="24.45" height="1.58"/><path class="cls-4" d="M43.67,18.15a3.17,3.17,0,0,0,0,6.34h4.75V18.15H43.67Z" transform="translate(0 0.26)"/><path class="cls-5" d="M56.35,21.32a3.18,3.18,0,0,0-3.17-3.17H48.43v6.34h4.75A3.18,3.18,0,0,0,56.35,21.32Z" transform="translate(0 0.26)"/><circle class="cls-3" cx="79.55" cy="44.94" r="13.91"/><polygon class="cls-2" points="71.18 45.41 75.98 53.93 88.77 37.47 76.38 48.07 71.18 45.41"/></svg>