<svg id="Capa_1" data-name="Capa 1" xmlns="http://www.w3.org/2000/svg" viewBox="0 0 100.02 100.02"><defs><style>.cls-1{fill:#bbe5ef;}.cls-2{fill:#192a35;}.cls-3{fill:#5dcae8;}.cls-4{fill:#4791ba;}.cls-5{fill:#347591;}</style></defs><title>exportar</title><circle class="cls-1" cx="50.01" cy="50.01" r="50.01"/><g id="YRkNl1"><path class="cls-2" d="M88,32c-1.1.85-2.19,1.71-3.31,2.54q-4.43,3.27-8.88,6.51c-1.05.77-1.69,0.5-1.78-.82C74,39.12,74,38,74,36.81c0-.33,0-0.65,0-1.06C67.31,35.2,62.45,38,58.75,43.58A17,17,0,0,1,63,32a15.32,15.32,0,0,1,11-5.28c0-.95,0-1.82,0-2.69A8.76,8.76,0,0,1,74,22.87c0.16-1.1.72-1.35,1.62-.7,1.7,1.22,3.38,2.46,5.07,3.7q3.16,2.31,6.32,4.62c0.34,0.25.63,0.55,0.94,0.83V32Z"/></g><polygon class="cls-2" points="53.26 78.59 12.81 78.18 54.21 57.25 94.66 57.66 53.26 78.59"/><polygon class="cls-3" points="52.25 63.87 46.18 63.81 50.87 61.44 56.94 61.5 52.25 63.87"/><polygon class="cls-3" points="80.84 62.32 58.52 62.09 59.64 61.53 81.96 61.76 80.84 62.32"/><polygon class="cls-3" points="77.27 64.13 54.95 63.9 56.07 63.33 78.39 63.56 77.27 64.13"/><polygon class="cls-3" points="44.44 67.82 38.37 67.76 43.05 65.39 49.13 65.45 44.44 67.82"/><polygon class="cls-3" points="73.03 66.27 50.71 66.04 51.83 65.48 74.14 65.71 73.03 66.27"/><polygon class="cls-3" points="69.45 68.08 47.13 67.85 48.25 67.29 70.57 67.51 69.45 68.08"/><polygon class="cls-3" points="36.62 71.78 30.55 71.71 35.24 69.34 41.31 69.4 36.62 71.78"/><polygon class="cls-3" points="65.21 70.22 42.89 70 44.01 69.43 66.33 69.66 65.21 70.22"/><polygon class="cls-3" points="61.64 72.03 39.32 71.8 40.44 71.24 62.76 71.47 61.64 72.03"/><polygon class="cls-3" points="28.81 75.73 22.74 75.67 27.43 73.29 33.5 73.36 28.81 75.73"/><polygon class="cls-3" points="57.4 74.17 35.08 73.95 36.2 73.38 58.52 73.61 57.4 74.17"/><polygon class="cls-3" points="53.83 75.98 31.5 75.75 32.62 75.19 54.94 75.42 53.83 75.98"/><path class="cls-4" d="M72.79,56a13.22,13.22,0,0,0-5.12,1.1c-1.23.62-.93,1.14,0.66,1.16l4.34,0,4.47-2.26Z"/><path class="cls-5" d="M82.13,57.29c1.23-.62.93-1.14-0.66-1.16l-4.34,0-4.47,2.26,4.34,0A13.22,13.22,0,0,0,82.13,57.29Z"/><polygon class="cls-2" points="51.98 73.62 11.53 73.21 52.93 52.28 93.37 52.69 51.98 73.62"/><polygon class="cls-3" points="50.97 58.9 44.9 58.84 49.59 56.47 55.66 56.53 50.97 58.9"/><polygon class="cls-3" points="79.56 57.35 57.24 57.12 58.36 56.55 80.68 56.78 79.56 57.35"/><polygon class="cls-3" points="75.99 59.15 53.67 58.93 54.78 58.36 77.1 58.59 75.99 59.15"/><polygon class="cls-3" points="43.16 62.85 37.08 62.79 41.77 60.42 47.84 60.48 43.16 62.85"/><polygon class="cls-3" points="71.75 61.3 49.42 61.07 50.54 60.51 72.86 60.73 71.75 61.3"/><polygon class="cls-3" points="68.17 63.1 45.85 62.88 46.97 62.31 69.29 62.54 68.17 63.1"/><polygon class="cls-3" points="35.34 66.8 29.27 66.74 33.96 64.37 40.03 64.43 35.34 66.8"/><polygon class="cls-3" points="63.93 65.25 41.61 65.02 42.73 64.46 65.05 64.69 63.93 65.25"/><polygon class="cls-3" points="60.36 67.06 38.04 66.83 39.15 66.27 61.47 66.49 60.36 67.06"/><polygon class="cls-3" points="27.53 70.75 21.45 70.69 26.14 68.32 32.22 68.38 27.53 70.75"/><polygon class="cls-3" points="56.12 69.2 33.8 68.97 34.91 68.41 57.23 68.64 56.12 69.2"/><polygon class="cls-3" points="52.54 71.01 30.22 70.78 31.34 70.22 53.66 70.44 52.54 71.01"/><path class="cls-4" d="M71.51,51.07a13.22,13.22,0,0,0-5.12,1.1c-1.23.62-.93,1.14,0.66,1.16l4.34,0,4.47-2.26Z"/><path class="cls-5" d="M80.85,52.32c1.23-.62.93-1.14-0.66-1.16l-4.34,0-4.47,2.26,4.34,0A13.22,13.22,0,0,0,80.85,52.32Z"/><polygon class="cls-2" points="46.67 68.86 6.24 67.73 47.99 47.53 88.43 48.66 46.67 68.86"/><polygon class="cls-3" points="45.92 54.12 39.85 53.95 44.58 51.66 50.65 51.83 45.92 54.12"/><polygon class="cls-3" points="74.53 53.07 52.22 52.45 53.35 51.91 75.66 52.53 74.53 53.07"/><polygon class="cls-3" points="70.93 54.82 48.62 54.2 49.74 53.65 72.06 54.27 70.93 54.82"/><polygon class="cls-3" points="38.04 57.93 31.97 57.77 36.7 55.48 42.77 55.65 38.04 57.93"/><polygon class="cls-3" points="66.65 56.89 44.34 56.27 45.46 55.72 67.78 56.34 66.65 56.89"/><polygon class="cls-3" points="63.05 58.63 40.73 58.01 41.86 57.46 64.17 58.09 63.05 58.63"/><polygon class="cls-3" points="30.16 61.75 24.08 61.58 28.81 59.29 34.88 59.46 30.16 61.75"/><polygon class="cls-3" points="58.77 60.7 36.45 60.08 37.58 59.53 59.89 60.16 58.77 60.7"/><polygon class="cls-3" points="55.16 62.44 32.85 61.82 33.98 61.28 56.29 61.9 55.16 62.44"/><polygon class="cls-3" points="22.27 65.56 16.2 65.39 20.93 63.1 27 63.27 22.27 65.56"/><polygon class="cls-3" points="50.88 64.51 28.57 63.89 29.7 63.35 52.01 63.97 50.88 64.51"/><polygon class="cls-3" points="47.28 66.26 24.97 65.64 26.09 65.09 48.41 65.71 47.28 66.26"/><path class="cls-4" d="M66.6,46.66a13.22,13.22,0,0,0-5.14,1c-1.24.6-1,1.13,0.64,1.17L66.43,49l4.5-2.18Z"/><path class="cls-5" d="M75.91,48.07c1.24-.6,1-1.13-0.64-1.17l-4.34-.12L66.43,49l4.34,0.12A13.22,13.22,0,0,0,75.91,48.07Z"/></svg>