<svg id="Capa_1" data-name="Capa 1" xmlns="http://www.w3.org/2000/svg" viewBox="0 0 98.81 98.81"><defs><style>.cls-1{fill:#bbe5ef;}.cls-2{fill:#192a35;}.cls-3{fill:#5dcae8;}.cls-4{fill:#4791ba;}.cls-5{fill:#347591;}</style></defs><title>historial</title><circle class="cls-1" cx="49.4" cy="49.4" r="49.4"/><path class="cls-2" d="M21.88,45.36V63.58A12.18,12.18,0,0,0,34,75.73H67.69A12.18,12.18,0,0,0,79.84,63.58V45.36h-58Z" transform="translate(-1)"/><path class="cls-2" d="M79.84,36A12.18,12.18,0,0,0,67.69,23.84H34A12.18,12.18,0,0,0,21.88,36v6.33h58V36Z" transform="translate(-1)"/><circle class="cls-3" cx="80.32" cy="60.54" r="8.89"/><polygon class="cls-2" points="81.33 59.57 81.33 54.47 79.39 54.47 79.39 59.57 79.39 61.51 81.33 61.51 86.43 61.51 86.43 59.57 81.33 59.57"/><rect class="cls-3" x="28.33" y="50.81" width="5.1" height="5.1"/><rect class="cls-3" x="33.42" y="55.9" width="5.1" height="5.1"/><rect class="cls-3" x="38.52" y="50.58" width="5.1" height="5.1"/><path class="cls-4" d="M41,15.87a2,2,0,0,0-2,2v5.95h4V17.89A2,2,0,0,0,41,15.87Z" transform="translate(-1)"/><path class="cls-5" d="M39,29.92a2,2,0,0,0,4,0V23.84H39v6.07Z" transform="translate(-1)"/><path class="cls-4" d="M62.12,17.89a2,2,0,0,0-4,0v5.95h4V17.89Z" transform="translate(-1)"/><path class="cls-5" d="M58.07,23.84v6.07a2,2,0,0,0,4,0V23.84h-4Z" transform="translate(-1)"/></svg>