<svg id="Capa_1" data-name="Capa 1" xmlns="http://www.w3.org/2000/svg" viewBox="0 0 601.01 246.68"><defs><style>.cls-1{fill:#fff;}</style></defs><title>salutis(logo)</title><polygon class="cls-1" points="178 32.33 178 55.33 192 55.33 192 182.33 181.5 182.33 181.5 204.83 232 204.83 232 181.83 218 181.83 218 32.33 178 32.33"/><path class="cls-1" d="M269.78,137.29v22h12.5v72.5s1,20.25,20.25,20.25h77.25V228.29h-12v-91h-39v24h13.5v67h-34.5v-91h-38Z" transform="translate(-46.78 -46.96)"/><path class="cls-1" d="M388.78,103.79v33.5h-13v21.5h13v73.5s2.5,18.25,18.25,18.25h23.25V228.79h-17v-68.5h31.5v90.25h101.5s17.63-4.5,17.63-17.62V199.79S560.41,183,547.09,183H506.78V159.29h57.13v-22H499.28c-14.25,0-17.75,7.5-17.75,17.75v29.75c0,13.17,2.5,18.13,18.13,18.13h40.13v26.38H469.84v-92H413.28v-33.5h-24.5Z" transform="translate(-46.78 -46.96)"/><circle class="cls-1" cx="409" cy="70.33" r="13.5"/><path class="cls-1" d="M197.78,137.29H69.28s-20,3.5-20,20v33.5S51.78,205,63.53,205h42.25v24.25h-59v22.5h68.5s16-4.5,16-18v-34s-3-15.25-15.25-15.25H73.78V160.29h121.5v26h-39.5c-9.33,0-18.75,10.67-18.75,18.5v28s3.19,18.94,16.31,18.94h64.44V157.29S216.78,137.29,197.78,137.29Zm-2.5,94h-37v-24.5h37v24.5Z" transform="translate(-46.78 -46.96)"/><rect class="cls-1" x="467.27" y="69.54" width="14.26" height="15.42"/><rect class="cls-1" x="482.23" y="12.16" width="15.08" height="15.08"/><rect class="cls-1" x="562.57" y="81.79" width="17.91" height="17.91"/><polygon class="cls-1" points="588.75 40.83 588.75 30.16 579.06 30.16 573.67 30.16 563.98 30.16 563.98 40.83 550.75 40.83 550.75 30.16 563.98 30.16 563.98 15.08 577.65 15.08 577.65 0 562.57 0 562.57 15.08 550.75 15.08 548.9 15.08 522.66 15.08 522.66 1.17 507.58 1.17 507.58 16.25 521.25 16.25 521.25 27.25 507.58 27.25 507.58 40.83 495.5 40.83 495.5 55.16 481.52 55.16 481.52 69.54 495.5 69.54 495.5 70.33 495.5 84.96 509.08 84.96 509.77 84.96 521.25 84.96 521.25 95.08 521.25 96.08 521.25 112.5 533.5 112.5 533.5 96.08 550.75 96.08 550.75 81.79 562.57 81.79 562.57 70.33 576.5 70.33 576.5 53.08 588.75 53.08 588.75 45.24 588.75 40.83"/><rect class="cls-1" x="588.75" y="53.08" width="12.25" height="12.25"/><path class="cls-1" d="M259.79,293.11h-3.57l-0.82-14.58q-0.58-10.29-.53-14.1h-0.14q-1.74,5.79-4.06,12.27L244.73,293H242L236.52,277a129.47,129.47,0,0,1-3.77-12.6H232.6q-0.14,6.91-.63,14.44l-0.87,14.25h-3.48l2.23-32.55h4.6L240.24,277q2,5.65,3.32,10.92h0.1a112.53,112.53,0,0,1,3.47-10.87l6-16.51h4.6Z" transform="translate(-46.78 -46.96)"/><path class="cls-1" d="M284.62,280a9.92,9.92,0,0,1-.15,1.88H268.29q0,4.47,2.46,6.75a7.65,7.65,0,0,0,5.6,2,15,15,0,0,0,6.28-1.26l0.68,2.66a17.34,17.34,0,0,1-7.49,1.45,10.55,10.55,0,0,1-8.11-3.21,12,12,0,0,1-3-8.52,13.68,13.68,0,0,1,2.92-9,9.51,9.51,0,0,1,7.7-3.53,8.23,8.23,0,0,1,7.44,3.86A12.64,12.64,0,0,1,284.62,280Zm-3.67-.82a8.46,8.46,0,0,0-1.16-4.73,5.36,5.36,0,0,0-4.85-2.51,5.77,5.77,0,0,0-4.85,2.46,9.11,9.11,0,0,0-1.79,4.78h12.65Z" transform="translate(-46.78 -46.96)"/><path class="cls-1" d="M309.49,293.11H306.2L306,289h-0.1q-2.22,4.59-7.82,4.59a8.8,8.8,0,0,1-7-3.31,12.73,12.73,0,0,1-2.8-8.52,13.57,13.57,0,0,1,3.06-9.22,9.33,9.33,0,0,1,7.28-3.28q5.05,0,7,3.62V258.87h3.67v28.44Q309.29,290.35,309.49,293.11Zm-3.86-9.63v-4.31a10.49,10.49,0,0,0-.15-1.89,6.92,6.92,0,0,0-2.18-3.63,6.52,6.52,0,0,0-9.4,1.14,11.12,11.12,0,0,0-1.94,6.75,10.62,10.62,0,0,0,1.79,6.39,6.15,6.15,0,0,0,5.28,2.71,6,6,0,0,0,4.75-2.13A7.45,7.45,0,0,0,305.62,283.48Z" transform="translate(-46.78 -46.96)"/><path class="cls-1" d="M320.69,262.83a2.44,2.44,0,0,1-.87,2,2.71,2.71,0,0,1-1.64.53,2.38,2.38,0,0,1-2.41-2.51,2.47,2.47,0,0,1,.7-1.79,2.54,2.54,0,0,1,3.55,0A2.52,2.52,0,0,1,320.69,262.83Zm-0.63,30.28h-3.67V269.78h3.67v23.33Z" transform="translate(-46.78 -46.96)"/><path class="cls-1" d="M343.44,270.55l-0.92,2.9a10.13,10.13,0,0,0-4.93-1.16,7.58,7.58,0,0,0-6.16,2.63,9.94,9.94,0,0,0-2.2,6.59,9.34,9.34,0,0,0,2.29,6.59,7.68,7.68,0,0,0,5.92,2.49,12.42,12.42,0,0,0,5.17-1.16l0.72,2.8a14.77,14.77,0,0,1-6.57,1.35,10.8,10.8,0,0,1-8.19-3.26,12,12,0,0,1-3.12-8.62,12.33,12.33,0,0,1,3.36-8.93A13.3,13.3,0,0,1,343.44,270.55Z" transform="translate(-46.78 -46.96)"/><path class="cls-1" d="M364.3,293.11H361l-0.34-3h-0.14a7.93,7.93,0,0,1-7.05,3.53,6.72,6.72,0,0,1-5.17-2.07,6.32,6.32,0,0,1-1.74-4.53,7.17,7.17,0,0,1,3.55-6.43q3.55-2.24,10.21-2.19v-0.53q0-5.78-5.36-5.73a10.53,10.53,0,0,0-5.89,1.64l-0.87-2.51a13.08,13.08,0,0,1,7.29-2q8.5,0,8.5,9.32v8.93A37.28,37.28,0,0,0,364.3,293.11Zm-4-7.75V281q-10.09-.19-10.09,5.48a4.16,4.16,0,0,0,1.16,3.2,4.08,4.08,0,0,0,2.9,1.08,6.2,6.2,0,0,0,3.86-1.25,5.93,5.93,0,0,0,2-2.83A4.56,4.56,0,0,0,360.29,285.36Z" transform="translate(-46.78 -46.96)"/><path class="cls-1" d="M374.54,293.11h-3.67V258.87h3.67v34.24Z" transform="translate(-46.78 -46.96)"/><path class="cls-1" d="M410.76,284.37a8.43,8.43,0,0,1-2.7,6.47q-3,2.75-8.26,2.75a13.73,13.73,0,0,1-8-2.08l1-3a13.35,13.35,0,0,0,7.22,2,7.69,7.69,0,0,0,5.16-1.59,5.31,5.31,0,0,0,1.87-4.25,5.69,5.69,0,0,0-1.43-4,11.91,11.91,0,0,0-4.72-2.78q-8.38-3.19-8.38-9.18a7.87,7.87,0,0,1,2.8-6.21,10.7,10.7,0,0,1,7.29-2.44,13.36,13.36,0,0,1,6.86,1.54l-1.11,3a11,11,0,0,0-5.89-1.5,6.71,6.71,0,0,0-4.88,1.69,4.66,4.66,0,0,0-1.4,3.43,5.08,5.08,0,0,0,1.55,3.82,17.16,17.16,0,0,0,4.88,2.75,16.1,16.1,0,0,1,6.08,3.82A8.41,8.41,0,0,1,410.76,284.37Z" transform="translate(-46.78 -46.96)"/><path class="cls-1" d="M436.88,281.23a12.94,12.94,0,0,1-2.95,8.74,10.3,10.3,0,0,1-8.31,3.67,9.87,9.87,0,0,1-8-3.57,12.54,12.54,0,0,1-2.85-8.45,12.87,12.87,0,0,1,2.95-8.69A10.31,10.31,0,0,1,426,269.3a10,10,0,0,1,8,3.48A12.55,12.55,0,0,1,436.88,281.23Zm-3.82.17a11,11,0,0,0-1.74-6.26,6.24,6.24,0,0,0-5.48-3,6.34,6.34,0,0,0-5.62,3,11.15,11.15,0,0,0-1.74,6.36,10.82,10.82,0,0,0,1.79,6.21,6.29,6.29,0,0,0,5.48,3,6.38,6.38,0,0,0,5.52-3.08A11.13,11.13,0,0,0,433.07,281.4Z" transform="translate(-46.78 -46.96)"/><path class="cls-1" d="M454.27,259.06l-0.58,2.85a6.78,6.78,0,0,0-2.75-.53q-4.64,0-4.64,7.15v1.26H452v2.85h-5.7v20.48h-3.67V272.63h-3.24v-2.85h3.24v-1.16q0-5.55,2.66-8.16a7.39,7.39,0,0,1,5.46-2.12A7.82,7.82,0,0,1,454.27,259.06Z" transform="translate(-46.78 -46.96)"/><path class="cls-1" d="M467,272.63h-6.08V286q0,4.59,3.16,4.59a7.72,7.72,0,0,0,2.44-.34l0.19,2.85a10,10,0,0,1-3.53.53,5.53,5.53,0,0,1-4.39-1.76q-1.55-1.76-1.55-5.87V272.63h-3.67v-2.85h3.67v-4.25l3.67-1.21v5.46H467v2.85Z" transform="translate(-46.78 -46.96)"/><path class="cls-1" d="M502.41,269.78l-7.49,23.33h-3.37l-3.7-11.63q-1.39-4.49-2.07-7.68h-0.1a76.72,76.72,0,0,1-2.16,7.73l-3.91,11.59h-3.4l-7-23.33h3.78L476.34,282q1.11,4.2,1.79,7.44h0.1q0.63-2.85,2.12-7.39l4-12.22h3.14l3.77,12q1.25,4,2.06,7.58h0.1q0.58-3,1.87-7.54l3.52-12.07h3.65Z" transform="translate(-46.78 -46.96)"/><path class="cls-1" d="M522.55,293.11h-3.33l-0.34-3h-0.14a7.93,7.93,0,0,1-7.05,3.53,6.72,6.72,0,0,1-5.17-2.07,6.32,6.32,0,0,1-1.74-4.53,7.17,7.17,0,0,1,3.55-6.43q3.55-2.24,10.21-2.19v-0.53q0-5.78-5.36-5.73a10.53,10.53,0,0,0-5.89,1.64l-0.87-2.51a13.08,13.08,0,0,1,7.29-2q8.5,0,8.5,9.32v8.93A37.28,37.28,0,0,0,522.55,293.11Zm-4-7.75V281q-10.09-.19-10.09,5.48a4.16,4.16,0,0,0,1.16,3.2,4.08,4.08,0,0,0,2.9,1.08,6.2,6.2,0,0,0,3.86-1.25,5.93,5.93,0,0,0,2-2.83A4.56,4.56,0,0,0,518.54,285.36Z" transform="translate(-46.78 -46.96)"/><path class="cls-1" d="M540,272.77h-1.34a5.09,5.09,0,0,0-4.51,2.56,9.48,9.48,0,0,0-1.34,5.17v12.6h-3.67V276.88q0-3.57-.15-7.1h3.19l0.14,4.59h0.14a8,8,0,0,1,2.56-3.69,6.07,6.07,0,0,1,3.86-1.38,5.87,5.87,0,0,1,1.11.09v3.38Z" transform="translate(-46.78 -46.96)"/><path class="cls-1" d="M562.1,280a9.92,9.92,0,0,1-.15,1.88H545.78q0,4.47,2.46,6.75a7.65,7.65,0,0,0,5.6,2,15,15,0,0,0,6.28-1.26l0.68,2.66a17.34,17.34,0,0,1-7.49,1.45,10.55,10.55,0,0,1-8.11-3.21,12,12,0,0,1-3-8.52,13.68,13.68,0,0,1,2.92-9,9.51,9.51,0,0,1,7.7-3.53,8.23,8.23,0,0,1,7.44,3.86A12.64,12.64,0,0,1,562.1,280Zm-3.67-.82a8.46,8.46,0,0,0-1.16-4.73,5.36,5.36,0,0,0-4.85-2.51,5.77,5.77,0,0,0-4.85,2.46,9.11,9.11,0,0,0-1.79,4.78h12.65Z" transform="translate(-46.78 -46.96)"/></svg>